<mxfile host="app.diagrams.net" modified="2023-04-11T02:27:03.384Z" agent="Mozilla/5.0 (Macintosh; Intel Mac OS X 10_15_7) AppleWebKit/537.36 (KHTML, like Gecko) Chrome/112.0.0.0 Safari/537.36" etag="lMtrSv3S6nQ_LWC7icVQ" version="21.1.5" type="device">
  <diagram name="Page-1" id="bRhJk8HzBOOXPFuxm7CE">
    <mxGraphModel dx="996" dy="906" grid="1" gridSize="10" guides="1" tooltips="1" connect="1" arrows="1" fold="1" page="1" pageScale="1" pageWidth="850" pageHeight="1100" math="0" shadow="0">
      <root>
        <mxCell id="0" />
        <mxCell id="1" parent="0" />
        <mxCell id="OB-dxN5LZebSLA3xzodv-38" value="" style="rounded=0;whiteSpace=wrap;html=1;labelBackgroundColor=#FFFFFF;labelBorderColor=default;strokeWidth=2;strokeColor=none;" parent="1" vertex="1">
          <mxGeometry x="100" y="140" width="870" height="330" as="geometry" />
        </mxCell>
        <mxCell id="OB-dxN5LZebSLA3xzodv-2" value="" style="endArrow=open;html=1;rounded=0;strokeWidth=2;endFill=0;" parent="1" edge="1">
          <mxGeometry width="50" height="50" relative="1" as="geometry">
            <mxPoint x="276" y="288" as="sourcePoint" />
            <mxPoint x="355" y="288.5" as="targetPoint" />
          </mxGeometry>
        </mxCell>
        <mxCell id="OB-dxN5LZebSLA3xzodv-16" value="" style="shape=image;html=1;verticalAlign=top;verticalLabelPosition=bottom;labelBackgroundColor=#ffffff;imageAspect=0;aspect=fixed;image=https://cdn4.iconfinder.com/data/icons/48-bubbles/48/12.File-128.png" parent="1" vertex="1">
          <mxGeometry x="600" y="255" width="68" height="68" as="geometry" />
        </mxCell>
        <mxCell id="OB-dxN5LZebSLA3xzodv-19" value="" style="shape=image;html=1;verticalAlign=top;verticalLabelPosition=bottom;labelBackgroundColor=#ffffff;imageAspect=0;aspect=fixed;image=https://cdn2.iconfinder.com/data/icons/essential-web-1-1/50/control-shuffle-mix-random-drag-128.png" parent="1" vertex="1">
          <mxGeometry x="497" y="260" width="58" height="58" as="geometry" />
        </mxCell>
        <mxCell id="OB-dxN5LZebSLA3xzodv-27" value="" style="sketch=0;pointerEvents=1;shadow=0;dashed=0;html=1;strokeColor=none;fillColor=#30363C;labelPosition=center;verticalLabelPosition=bottom;verticalAlign=top;outlineConnect=0;align=center;shape=mxgraph.office.concepts.website;" parent="1" vertex="1">
          <mxGeometry x="150" y="247.89" width="99" height="82.22" as="geometry" />
        </mxCell>
        <mxCell id="OB-dxN5LZebSLA3xzodv-28" value="Find papers on &lt;br&gt;&quot;source&quot; websites" style="text;html=1;strokeColor=none;fillColor=none;align=center;verticalAlign=middle;whiteSpace=wrap;rounded=0;fontFamily=Tahoma;fontSize=15;" parent="1" vertex="1">
          <mxGeometry x="150" y="181" width="140" height="30" as="geometry" />
        </mxCell>
        <mxCell id="OB-dxN5LZebSLA3xzodv-29" value="Build a data set &lt;br&gt;of papers" style="text;html=1;strokeColor=none;fillColor=none;align=center;verticalAlign=middle;whiteSpace=wrap;rounded=0;fontFamily=Tahoma;fontSize=15;" parent="1" vertex="1">
          <mxGeometry x="332" y="360" width="170" height="30" as="geometry" />
        </mxCell>
        <mxCell id="OB-dxN5LZebSLA3xzodv-30" value="Random paper &lt;br&gt;suggestion appears" style="text;html=1;strokeColor=none;fillColor=none;align=center;verticalAlign=middle;whiteSpace=wrap;rounded=0;fontFamily=Tahoma;fontSize=15;" parent="1" vertex="1">
          <mxGeometry x="560" y="181" width="140" height="33" as="geometry" />
        </mxCell>
        <mxCell id="OB-dxN5LZebSLA3xzodv-31" value="" style="endArrow=open;html=1;rounded=0;strokeWidth=2;endFill=0;" parent="1" edge="1">
          <mxGeometry width="50" height="50" relative="1" as="geometry">
            <mxPoint x="720" y="288.5" as="sourcePoint" />
            <mxPoint x="799" y="289" as="targetPoint" />
          </mxGeometry>
        </mxCell>
        <mxCell id="OB-dxN5LZebSLA3xzodv-32" value="" style="sketch=0;html=1;aspect=fixed;strokeColor=none;shadow=0;align=center;fillColor=#2DB34B;verticalAlign=top;labelPosition=center;verticalLabelPosition=bottom;shape=mxgraph.gcp2.check" parent="1" vertex="1">
          <mxGeometry x="728.5" y="306" width="50" height="40" as="geometry" />
        </mxCell>
        <mxCell id="OB-dxN5LZebSLA3xzodv-33" value="Hooman approves" style="text;html=1;strokeColor=none;fillColor=none;align=center;verticalAlign=middle;whiteSpace=wrap;rounded=0;fontFamily=Tahoma;fontSize=15;" parent="1" vertex="1">
          <mxGeometry x="700" y="360" width="105" height="30" as="geometry" />
        </mxCell>
        <mxCell id="OB-dxN5LZebSLA3xzodv-34" value="" style="shape=image;html=1;verticalAlign=top;verticalLabelPosition=bottom;labelBackgroundColor=#ffffff;imageAspect=0;aspect=fixed;image=https://cdn4.iconfinder.com/data/icons/48-bubbles/48/43.Bell-128.png" parent="1" vertex="1">
          <mxGeometry x="850" y="249" width="68" height="68" as="geometry" />
        </mxCell>
        <mxCell id="OB-dxN5LZebSLA3xzodv-37" value="Update&lt;br&gt;website" style="text;html=1;strokeColor=none;fillColor=none;align=center;verticalAlign=middle;whiteSpace=wrap;rounded=0;fontFamily=Tahoma;fontSize=15;" parent="1" vertex="1">
          <mxGeometry x="849" y="181" width="60" height="30" as="geometry" />
        </mxCell>
        <mxCell id="INSDCjLmlAj5Y4JtULXQ-2" value="manual -- run commands" style="rounded=0;whiteSpace=wrap;html=1;fillColor=#30363c;strokeColor=none;fontStyle=1;fontColor=#FFFFFF;fontSize=14;" parent="1" vertex="1">
          <mxGeometry x="139" y="420" width="337" height="30" as="geometry" />
        </mxCell>
        <mxCell id="INSDCjLmlAj5Y4JtULXQ-3" value="automatic -- by actions" style="rounded=0;whiteSpace=wrap;html=1;fillColor=#2db34b;strokeColor=none;fontColor=#FFFFFF;fontStyle=1;fontSize=14;" parent="1" vertex="1">
          <mxGeometry x="480" y="420" width="450" height="30" as="geometry" />
        </mxCell>
        <mxCell id="OB-dxN5LZebSLA3xzodv-20" value="" style="shape=cylinder3;whiteSpace=wrap;html=1;boundedLbl=1;backgroundOutline=1;size=15;strokeWidth=3;" parent="1" vertex="1">
          <mxGeometry x="372" y="249" width="90" height="80" as="geometry" />
        </mxCell>
        <mxCell id="OB-dxN5LZebSLA3xzodv-15" value="" style="dashed=0;outlineConnect=0;html=1;align=center;labelPosition=center;verticalLabelPosition=bottom;verticalAlign=top;shape=mxgraph.weblogos.json_2;fillColor=none;strokeColor=none;" parent="1" vertex="1">
          <mxGeometry x="382" y="290.63" width="70" height="21.94" as="geometry" />
        </mxCell>
        <mxCell id="wlrQgJPOBC26v2cOr7MJ-2" value="Notify&lt;br&gt;(optional)" style="text;html=1;strokeColor=none;fillColor=none;align=center;verticalAlign=middle;whiteSpace=wrap;rounded=0;fontFamily=Tahoma;fontSize=15;" vertex="1" parent="1">
          <mxGeometry x="850" y="360" width="60" height="30" as="geometry" />
        </mxCell>
      </root>
    </mxGraphModel>
  </diagram>
</mxfile>
